:SAMPLES-PER-SECOND 30
:FULLY-SPECIFIED
:DEGREES
231
root  34.99008539 36.49384506 -14.99649108 7.849658489 -7.28167057 4.249573708
lowerback  -7.615640163 -1.132300019 -1.071800351
upperback  -3.725236416 -0.9698539972 -3.875780106
thorax  0.3708440065 -0.3239189982 -3.474829912
lowerneck  -5.419229984 -13.89190006 -8.345769882
upperneck  12.88300037 -19.41419983 12.19830036
head  6.8427701 -8.856300354 3.457410097
lclavicle  0 -4.497500157e-015 -2.743230041e-014
lhumerus  -46.82460022 27.70739937 64.3003006
lradius  0.004719055258 -6.507048965e-006 30.16980171
lwrist  4.824992743e-007 -3.790274832e-007 -28.62360001
lhand  -4.417018933e-031 -36.92369843 -10.76980019
lfingers  90 7.125020027 -90
lthumb  94.84737526 -25.60301482 101.1030546
rclavicle  0 -4.497500157e-015 -2.743230041e-014
rhumerus  -31.06970215 -38.61450195 -3.420497417
rradius  -5.16745672e-007 2.214343908e-008 51.20489883
rwrist  -7.499573258e-005 0.03438235447 -169.1889954
rhand  -1.770287634e-031 4.187150002 -7.54761982
rfingers  -90 -7.125020027 -90
rthumb  -85.12808756 -8.504718474 -60.04313503
rfemur  -12.66462803 17.11746216 11.92149544
rtibia  -1.580127001 -1.564085603 21.62616539
rfoot  0.1510209441 -22.52557182 -35.12661362
rtoes  3.834457173 19.6437716 -101.2754743
lfemur  -8.31917572 -17.63920975 -21.33844185
ltibia  1.929141283 -2.458045006 15.82908535
lfoot  1.074068069 -21.54832268 39.43239594
ltoes  -8.661221334 -18.0969149 -116.1230777
232
root  34.98898904 36.49369187 -14.99548935 7.850846767 -7.268083572 4.247424603
lowerback  -7.615490437 -1.131330013 -1.072349906
upperback  -3.726062536 -0.9698169827 -3.860270023
thorax  0.3710069954 -0.3242309988 -3.458349943
lowerneck  -5.718760014 -13.48939991 -8.044070244
upperneck  12.86060047 -18.83860207 11.94799995
head  6.769760132 -8.577569962 3.394220114
lclavicle  0 -4.497500157e-015 -2.743230041e-014
lhumerus  -46.80519867 27.7465992 64.32409668
lradius  0.004719055258 -6.507048965e-006 30.1760006
lwrist  4.824992743e-007 -3.790274832e-007 -28.57939911
lhand  -0 -36.95500183 -10.71580029
lfingers  90 7.125020027 -90
lthumb  94.85060204 -25.54893905 101.1316801
rclavicle  0 -4.497500157e-015 -2.743230041e-014
rhumerus  -31.45089722 -38.13279724 -3.491570711
rradius  -5.16745672e-007 2.214343908e-008 52.02519989
rwrist  -7.499573258e-005 0.03438235447 -169.6809998
rhand  -1.77019945e-031 4.147980213 -7.438509941
rfingers  -90 -7.125020027 -90
rthumb  -85.08195512 -8.596730262 -60.07312642
rfemur  -12.64735889 17.05531883 11.91757298
rtibia  -1.567406297 -1.621224284 21.60720444
rfoot  0.1442948729 -22.66506386 -35.09537888
rtoes  3.811304752 19.64810528 -101.2066107
lfemur  -8.302345276 -17.6577549 -21.34160614
ltibia  1.93837738 -2.452855587 15.80373573
lfoot  1.07016027 -21.54198265 39.44307709
ltoes  -8.668037606 -18.09373602 -116.1450233
233
root  34.98679033 36.49334645 -14.99394995 7.853640556 -7.228954792 4.258981228
lowerback  -7.60158062 -1.089930177 -0.9994923472
upperback  -3.726107597 -0.9246410131 -3.827830076
thorax  0.3672839999 -0.3040789962 -3.461970091
lowerneck  -6.000179768 -13.12919998 -7.862770081
upperneck  12.83409977 -18.31489944 11.69439983
head  6.71201992 -8.332360268 3.339380026
lclavicle  0 -4.497500157e-015 -2.743230041e-014
lhumerus  -46.74300003 27.71019936 64.47920227
lradius  0.004719055258 -6.507048965e-006 30.15649986
lwrist  4.824992743e-007 -3.790274832e-007 -28.56649971
lhand  -4.417268239e-031 -36.9280014 -10.7748003
lfingers  90 7.125020027 -90
lthumb  94.85049181 -25.60776373 101.1081755
rclavicle  0 -4.497500157e-015 -2.743230041e-014
rhumerus  -31.91000175 -37.86570358 -3.355968952
rradius  -5.16745672e-007 2.214343908e-008 52.82659912
rwrist  -7.499573258e-005 0.03438235447 -170.0449982
rhand  -1.77000414e-031 4.059869766 -7.365640163
rfingers  -90 -7.125020027 -90
rthumb  -85.06543446 -8.654237769 -60.15348924
rfemur  -12.69536209 17.04906464 11.92199802
rtibia  -1.586544871 -1.5811795 21.6912365
rfoot  0.105371356 -22.60061646 -35.1347847
rtoes  3.803324631 19.64959266 -101.1828783
lfemur  -8.289051056 -17.64688873 -21.35419846
ltibia  1.956894517 -2.432910681 15.76019955
lfoot  1.052135587 -21.55782127 39.39757156
ltoes  -8.658249288 -18.09829998 -116.1135101
234
root  34.98531852 36.49301304 -14.99258026 7.857060432 -7.208573341 4.23074913
lowerback  -7.612239361 -1.039800048 -0.9615680575
upperback  -3.725677013 -0.8623369932 -3.808569908
thorax  0.3751710057 -0.27403 -3.463205099
lowerneck  -6.301089764 -12.77639961 -7.713610172
upperneck  12.85350037 -17.80690002 11.47649956
head  6.682819843 -8.089900017 3.294939995
lclavicle  0 -4.497500157e-015 -2.743230041e-014
lhumerus  -46.71989822 27.82320023 64.58940125
lradius  0.004719055258 -6.507048965e-006 30.1296978
lwrist  4.824992743e-007 -3.790274832e-007 -28.71859932
lhand  -4.419094784e-031 -36.95949936 -10.73480034
lfingers  90 7.125020027 -90
lthumb  94.85676144 -25.56741503 101.1382029
rclavicle  0 -4.497500157e-015 -2.743230041e-014
rhumerus  -32.37250137 -37.13299561 -3.221512079
rradius  -5.16745672e-007 2.214343908e-008 53.59230042
rwrist  -7.499573258e-005 0.03438235447 -170.8919983
rhand  -1.769738713e-031 3.936939955 -7.353980064
rfingers  -90 -7.125020027 -90
rthumb  -85.08771204 -8.656589792 -60.27247766
rfemur  -12.65846348 17.02485847 11.94806862
rtibia  -1.560752034 -1.591088533 21.64079857
rfoot  0.1276248693 -22.64758873 -35.10972977
rtoes  3.807813538 19.64875639 -101.1962278
lfemur  -8.231629372 -17.65100861 -21.33647156
ltibia  1.984215379 -2.396362066 15.69984627
lfoot  1.06229353 -21.58658028 39.43552017
ltoes  -8.653079154 -18.10070802 -116.0968682
235
root  34.98330604 36.49251743 -14.99186388 7.860754013 -7.177722454 4.230398178
lowerback  -7.617520332 -1.033139944 -0.9459097981
upperback  -3.725075722 -0.8551399708 -3.804120064
thorax  0.3848839998 -0.270927012 -3.462450027
lowerneck  -6.654920101 -12.37269974 -7.311329842
upperneck  12.93089962 -17.24090004 11.15149975
head  6.645040035 -7.809169769 3.184489965
lclavicle  0 -4.497500157e-015 -2.743230041e-014
lhumerus  -46.64080048 27.58760071 64.71350098
lradius  0.004719055258 -6.507048965e-006 30.16410065
lwrist  4.824992743e-007 -3.790274832e-007 -28.44149971
lhand  -4.417807257e-031 -36.93730164 -10.78250027
lfingers  90 7.125020027 -90
lthumb  94.85652206 -25.61495088 101.1188686
rclavicle  0 -4.497500157e-015 -2.743230041e-014
rhumerus  -32.89910126 -36.68040085 -3.272102356
rradius  -5.16745672e-007 2.214343908e-008 54.53900146
rwrist  -7.499573258e-005 0.03438235447 -171.2480011
rhand  -1.769628806e-031 3.884890079 -7.297520161
rfingers  -90 -7.125020027 -90
rthumb  -85.07136118 -8.702283751 -60.31895978
rfemur  -12.65204048 17.01294899 11.95019245
rtibia  -1.556961894 -1.584637523 21.63752174
rfoot  0.1159000173 -22.63951492 -35.15017319
rtoes  3.850446632 19.64076271 -101.3230413
lfemur  -8.232775688 -17.6246109 -21.33310699
ltibia  1.987857699 -2.389059782 15.69155025
lfoot  1.039892435 -21.59114456 39.35806274
ltoes  -8.652077574 -18.10117431 -116.0936445
236
root  34.98168104 36.49237325 -14.99145838 7.872763157 -7.155443668 4.222028732
lowerback  -7.622731686 -1.028519988 -0.9469718933
upperback  -3.723946571 -0.849247992 -3.800930023
thorax  0.3900189996 -0.269898206 -3.458110094
lowerneck  -6.987679958 -11.97259998 -6.943240166
upperneck  13.0223999 -16.68199921 10.83139992
head  6.616549969 -7.533750057 3.079080105
lclavicle  0 -4.497500157e-015 -2.743230041e-014
lhumerus  -46.6242981 27.49189949 64.76170349
lradius  0.004719055258 -6.507048965e-006 30.20969772
lwrist  4.824992743e-007 -3.790274832e-007 -28.31439972
lhand  -4.417320405e-031 -36.92890167 -10.82409954
lfingers  90 7.125020027 -90
lthumb  94.86143285 -25.65617045 101.1136264
rclavicle  0 -4.497500157e-015 -2.743230041e-014
rhumerus  -33.33000183 -36.36549759 -3.33414197
rradius  -5.16745672e-007 2.214343908e-008 55.29570007
rwrist  -7.499573258e-005 0.03438235447 -171.3959961
rhand  -1.76984499e-031 3.986619949 -7.211589813
rfingers  -90 -7.125020027 -90
rthumb  -85.00479824 -8.783324542 -60.21322894
rfemur  -12.64883709 17.05030823 11.96164989
rtibia  -1.555216551 -1.575658083 21.63212967
rfoot  0.1034546494 -22.63124847 -35.2065506
rtoes  3.838980138 19.6429218 -101.288929
lfemur  -8.278852463 -17.58486748 -21.30047417
ltibia  1.960534692 -2.365525007 15.73275661
lfoot  1.033677578 -21.66044807 39.30311203
ltoes  -8.646680235 -18.10368589 -116.0762739
